# xmcd CD database file
#
# Track frame offsets:
#	150
#	15746
#	31146
#	48062
#	70150
#	87076
#	105377
#	121035
#	139160
#	157473
#	177058
#	194821
#	211847
#	224823
#	244803
#
# Disc length: 3524 seconds
#
# Revision: 1
# Processed by: cddbd v1.5.2PL0 Copyright (c) Steve Scherf et al.
# Submitted via: CDex 1.70beta2
#
DISCID=d30dc20f
DTITLE=Various Artist - 2011 Radio Italia Top Estate CD1
DYEAR=2011
DGENRE=Italian
TTITLE0=Un'Emozione Inaspettata 
TTITLE1=La Notte 
TTITLE2=Io Son Per Te L'Amore 
TTITLE3=Radio Conga 
TTITLE4=Il Mare Immenso 
TTITLE5=E Da Qui 
TTITLE6=Diamante Lei E Luce Lui 
TTITLE7=Tranne Te 
TTITLE8=Hello! 
TTITLE9=Fumo E Malinconia
TTITLE10=Dove Si Vola 
TTITLE11=Per Farti Tornare 
TTITLE12=Immaturi 
TTITLE13=I Belong To You (Il Ritmo Della Passione)
TTITLE14=Eden 
EXTD=YEAR: 2011
EXTT0=
EXTT1=
EXTT2=
EXTT3=
EXTT4=
EXTT5=
EXTT6=
EXTT7=
EXTT8=
EXTT9=
EXTT10=
EXTT11=
EXTT12=
EXTT13=
EXTT14=
PLAYORDER=
